# xmcd
#
# Track frame offsets: 
#        150
#        18957
#        39509
#        57311
#        75648
#        96130
#        115410
#        140180
#        162204
#        181651
#        201321
#        220258
#        235752
#        252464
#        277321
#        302770
#
# Disc length: 4290 seconds
#
# Revision: 0
# Processed by: cddbd v1.5.2PL0 Copyright (c) Steve Scherf et al.
# Submitted via: ExactAudioCopy v0.95b4
#
DISCID=e710c010
DTITLE=Various Artist - Siempre Te Amare Vol.19
DYEAR=2000
DGENRE=Ballad
TTITLE0=Jorge Baglietto - Fiel a ti
TTITLE1=Alejandro Sanz - Pisando fuerte
TTITLE2=Ricardo Arjona - Realmente no estoy tan solo
TTITLE3=Luis Miguel - Por favor señora
TTITLE4=Ricardo Montaner - La cima del cielo
TTITLE5=Cristian Castro - Mañana
TTITLE6=Jon Secada - Otro día mas sin verte
TTITLE7=Eros Ramazzotti - Cosas de la vida
TTITLE8=Laura Pausini - Amores extraños
TTITLE9=Franco De Vita - Y te pienso
TTITLE10=Gian Marco - Dos historias
TTITLE11=Myriam Hernandez - Tonto
TTITLE12=Lucero - Ya no
TTITLE13=Isabel Pantoja - Así fue
TTITLE14=Ricky Martin - Fuego de noche, nieve de día
TTITLE15=Maria Conchita Alonso - Acariciame
EXTD=
EXTT0=
EXTT1=
EXTT2=
EXTT3=
EXTT4=
EXTT5=
EXTT6=
EXTT7=
EXTT8=
EXTT9=
EXTT10=
EXTT11=
EXTT12=
EXTT13=
EXTT14=
EXTT15=
PLAYORDER=
